<?xml version="1.0" standalone="no"?>
<!DOCTYPE svg PUBLIC "-//W3C//DTD SVG 20010904//EN"
 "http://www.w3.org/TR/2001/REC-SVG-20010904/DTD/svg10.dtd">
<svg version="1.0" xmlns="http://www.w3.org/2000/svg"
 width="700.000000pt" height="700.000000pt" viewBox="0 0 700.000000 700.000000"
 preserveAspectRatio="xMidYMid meet">
<metadata>
Created by potrace 1.11, written by Peter Selinger 2001-2013
</metadata>
<g transform="translate(0.000000,700.000000) scale(0.100000,-0.100000)"
fill="#000000" stroke="none">
<path d="M2455 6984 c-266 -58 -501 -266 -588 -519 l-14 -40 -264 -5 c-249 -5
-266 -6 -306 -27 -74 -40 -122 -127 -118 -216 1 -22 -3 -41 -9 -43 -6 -2 -117
-5 -246 -8 -259 -5 -319 -15 -446 -75 -136 -64 -272 -184 -347 -308 -44 -73
-92 -198 -106 -278 -8 -40 -11 -799 -11 -2415 l1 -2355 23 -91 c61 -233 215
-421 431 -525 45 -21 117 -47 161 -58 77 -19 131 -20 1999 -20 2064 0 1970 -2
2111 50 257 96 433 301 511 594 4 17 9 1092 10 2390 2 2491 3 2421 -42 2550
-83 237 -269 419 -509 500 -99 33 -150 38 -394 39 -116 1 -212 3 -213 6 -1 3
-3 25 -4 50 -8 108 -39 164 -114 208 l-46 27 -264 1 -264 2 -22 60 c-72 198
-257 388 -454 465 -133 52 -335 70 -466 41z"/>
<path d="M6265 5230 c-86 -25 -109 -35 -174 -79 -80 -55 -154 -139 -196 -224
-69 -141 -65 -50 -62 -1612 l2 -1410 23 -70 c29 -86 422 -881 453 -914 48 -51
122 -59 186 -20 29 18 62 77 235 422 194 388 237 483 254 557 13 56 17 2802 4
2885 -23 145 -130 310 -254 389 -143 90 -321 119 -471 76z"/>
</g>
</svg>
